# xmcd
#
# Track frame offsets: 
#        150
#        2383
#        20966
#        44035
#        60512
#        77845
#        94776
#        117023
#        136133
#        157141
#        174719
#        189776
#        219355
#
# Disc length: 3568 seconds
#
# Revision: 0
# Processed by: cddbd v1.5.2PL0 Copyright (c) Steve Scherf et al.
# Submitted via: ExactAudioCopyFreeDBPlugin 1.0
#
DISCID=a70dee0d
DTITLE=The Paul DesLauriers Band - Bounce
DYEAR=2019
DGENRE=Blues
TTITLE0=Here We Go
TTITLE1=It's All On You
TTITLE2=Let Me Go Down In Flames
TTITLE3=Take Me To The Brink
TTITLE4=Happy Wasting Time With You
TTITLE5=Driving Me Insane
TTITLE6=Jumpin' At Shadows
TTITLE7=Working My Way Back Home
TTITLE8=Picked A Bad Day feat. JP Soars
TTITLE9=When The Darkness Comes
TTITLE10=Feeling All Kinds of Good
TTITLE11=Loosy Goosy Jam #769
TTITLE12=Waiting on You
EXTD=
EXTT0=
EXTT1=
EXTT2=
EXTT3=
EXTT4=
EXTT5=
EXTT6=
EXTT7=
EXTT8=
EXTT9=
EXTT10=
EXTT11=
EXTT12=
PLAYORDER=
